<svg xmlns="http://www.w3.org/2000/svg" version="1.1" xmlns:xlink="http://www.w3.org/1999/xlink" xmlns:svgjs="http://svgjs.com/svgjs" width="1440" height="560" preserveAspectRatio="none" viewBox="0 0 1440 560"><g mask="url(&quot;#SvgjsMask1214&quot;)" fill="none"><rect width="1440" height="560" x="0" y="0" fill="url(#SvgjsLinearGradient1215)"></rect><path d="M1440 0L729.04 0L1440 93.32z" fill="rgba(255, 255, 255, .1)"></path><path d="M729.04 0L1440 93.32L1440 215.54L504.87 0z" fill="rgba(255, 255, 255, .075)"></path><path d="M504.87 0L1440 215.54L1440 291.7L267.59000000000003 0z" fill="rgba(255, 255, 255, .05)"></path><path d="M267.5899999999999 0L1440 291.7L1440 357.24L104.46999999999991 0z" fill="rgba(255, 255, 255, .025)"></path><path d="M0 560L53.78 560L0 284.69z" fill="rgba(0, 0, 0, .1)"></path><path d="M0 284.69L53.78 560L529.78 560L0 213.26z" fill="rgba(0, 0, 0, .075)"></path><path d="M0 213.26L529.78 560L1036.53 560L0 181.42z" fill="rgba(0, 0, 0, .05)"></path><path d="M0 181.42000000000002L1036.53 560L1159.57 560L0 171.93z" fill="rgba(0, 0, 0, .025)"></path></g><defs><mask id="SvgjsMask1214"><rect width="1440" height="560" fill="#ffffff"></rect></mask><linearGradient x1="15.28%" y1="-39.29%" x2="84.72%" y2="139.29%" gradientUnits="userSpaceOnUse" id="SvgjsLinearGradient1215"><stop stop-color="rgba(130, 194, 255, 1)" offset="0"></stop><stop stop-color="rgba(49, 130, 206, 1)" offset="1"></stop></linearGradient></defs></svg>